<?xml version="1.0" encoding="UTF-8"?>
<!DOCTYPE svg PUBLIC "-//W3C//DTD SVG 1.1//EN" "http://www.w3.org/Graphics/SVG/1.1/DTD/svg11.dtd">
<!-- Creator: CorelDRAW X7 -->
<?xml-stylesheet href="toyota-bandung.css" type="text/css"?>
<svg xmlns="http://www.w3.org/2000/svg" xml:space="preserve" width="3384px" height="500px" version="1.1" style="shape-rendering:geometricPrecision; text-rendering:geometricPrecision; image-rendering:optimizeQuality; fill-rule:evenodd; clip-rule:evenodd"
viewBox="0 0 4743 701"
 xmlns:xlink="http://www.w3.org/1999/xlink">
 <g id="Layer_x0020_1">
  <metadata id="CorelCorpID_0Corel-Layer"/>
  <path class="fil0" d="M4122 194c7,-9 15,-17 24,-25 38,-29 89,-37 135,-37l226 0 0 150 -25 6c1,8 2,15 2,23 0,39 -12,76 -39,104 3,2 6,4 9,6 37,28 50,72 50,117l0 7c0,45 -14,86 -48,116 -35,31 -81,40 -126,40l-97 0c-37,0 -74,-8 -105,-29 -34,-24 -52,-58 -52,-99l0 -8c0,-4 0,-7 1,-11l-454 0 -7 -13c-26,10 -53,17 -82,17 -35,0 -67,-10 -93,-32l0 28 -170 0 -5 -8c-19,8 -40,12 -61,12 -41,0 -79,-12 -108,-38l0 34 -518 0 -5 -11c-25,10 -52,15 -79,15 -37,0 -70,-11 -96,-37 -5,-5 -10,-10 -14,-15 -28,36 -70,52 -117,52 -23,0 -46,-3 -67,-12l-5 8 -169 0 0 -130 -159 0 0 130 -166 0 -5 -11c-26,10 -52,15 -80,15 -21,0 -42,-4 -61,-13l0 9 -115 0c-29,0 -59,-3 -85,-15 -28,-14 -48,-36 -60,-65 0,0 -1,-1 -1,-2 -15,29 -37,51 -67,65 -34,16 -74,20 -112,20 -37,0 -76,-4 -110,-21 -32,-15 -56,-41 -71,-74l-30 139 -47 93 -184 0 35 -151c-35,-14 -62,-39 -79,-75 -14,31 -37,55 -69,69 -34,16 -74,20 -111,20 -37,0 -77,-4 -111,-21 -7,-3 -14,-7 -21,-12l0 30 -115 0c-28,0 -58,-3 -85,-15 -28,-14 -48,-36 -60,-65 -11,-28 -13,-60 -12,-90l1 -65 -47 0 0 -157 58 -18 15 -100 179 0 0 88 69 0 0 25c6,-4 12,-8 19,-11 34,-15 73,-19 110,-19 32,0 68,3 99,15l-3 -10 216 0 16 82 17 -82 213 0 -4 15c1,0 2,0 3,-1 33,-15 73,-19 109,-19 37,0 77,4 110,20 8,3 15,7 22,12l48 -15 15 -100 179 0 0 88 69 0 0 13c41,-12 85,-17 128,-17 44,0 92,7 128,34 26,20 40,46 48,76l164 0 0 -238 207 0 0 130c10,-2 20,-3 30,-3 34,0 68,7 96,27 8,5 14,11 21,18l0 -8 35 -12c47,-17 98,-24 148,-24 45,0 92,7 128,34 2,2 3,3 5,4l0 -34 168 0 6 11c1,0 2,-1 3,-1 23,-9 47,-15 72,-15 46,0 92,13 120,53 2,4 5,7 7,11 10,-15 22,-28 38,-38 29,-20 65,-26 100,-26 8,0 15,0 23,1l0 -128 207 0 0 132 471 0 7 11c1,0 2,-1 3,-1 23,-9 47,-15 71,-15 47,0 92,13 120,53 4,5 6,9 9,14zm-3919 308c-26,0 -47,-4 -62,-11 -16,-8 -27,-20 -34,-37 -7,-16 -9,-39 -8,-68l3 -120 -49 0 0 -65 53 -16 13 -89 80 0 0 89 69 0 0 81 -69 0 0 119c0,13 2,22 7,27 4,6 11,9 19,10l40 4 0 76 -62 0zm247 2c-37,0 -66,-5 -88,-15 -21,-11 -36,-27 -46,-51 -10,-23 -14,-55 -14,-95 0,-43 4,-76 14,-99 10,-24 25,-40 46,-50 21,-9 51,-14 88,-14 37,0 66,5 88,15 21,9 37,26 46,50 10,23 15,56 15,98 0,41 -5,74 -14,97 -10,23 -25,39 -46,49 -22,10 -51,15 -89,15zm0 -80c13,0 22,-2 29,-5 6,-4 10,-11 13,-23 3,-12 5,-30 5,-54 0,-24 -2,-42 -5,-53 -3,-12 -7,-19 -13,-23 -7,-3 -16,-5 -29,-5 -13,0 -23,2 -29,5 -6,4 -10,11 -13,22 -3,12 -5,29 -5,54 0,25 2,43 5,54 3,12 7,19 14,23 6,3 15,5 28,5zm323 78c-57,0 -93,-30 -106,-89l-54 -228 105 0 43 208c3,16 13,25 29,26l48 -234 104 0 -87 398 -30 58 -85 0 33 -139zm343 2c-36,0 -65,-5 -87,-15 -21,-11 -37,-27 -46,-51 -10,-23 -15,-55 -15,-95 0,-43 5,-76 15,-99 9,-24 25,-40 46,-50 21,-9 50,-14 87,-14 38,0 67,5 88,15 22,9 37,26 47,50 9,23 14,56 14,98 0,41 -4,74 -14,97 -9,23 -24,39 -45,49 -22,10 -51,15 -90,15zm0 -80c13,0 23,-2 29,-5 7,-4 11,-11 14,-23 3,-12 5,-30 5,-54 0,-24 -2,-42 -5,-53 -3,-12 -7,-19 -14,-23 -6,-3 -16,-5 -29,-5 -12,0 -22,2 -28,5 -6,4 -11,11 -14,22 -2,12 -4,29 -4,54 0,25 2,43 4,54 3,12 8,19 14,23 7,3 16,5 28,5zm325 78c-26,0 -47,-4 -63,-11 -15,-8 -26,-20 -33,-37 -7,-16 -10,-39 -9,-68l3 -120 -48 0 0 -65 52 -16 13 -89 81 0 0 89 69 0 0 81 -69 0 0 119c0,13 2,22 6,27 5,6 11,9 20,10l40 4 0 76 -62 0zm176 3c-24,0 -43,-7 -58,-22 -15,-14 -23,-34 -23,-58l0 -30c0,-26 9,-46 27,-61 17,-15 44,-22 79,-22l72 0 0 -16c0,-9 -2,-16 -5,-21 -3,-6 -9,-9 -18,-12 -10,-2 -23,-3 -42,-3l-93 0 0 -58c38,-14 82,-21 131,-21 43,0 75,8 96,24 22,16 33,44 33,84l0 213 -81 0 -16 -33c-9,9 -23,17 -41,25 -18,7 -38,11 -61,11zm53 -70c6,0 15,-1 24,-4 10,-3 17,-5 20,-7l0 -65 -38 4c-26,2 -39,13 -39,33l0 12c0,18 11,27 33,27zm186 -145l182 0 0 82 -182 0 0 -82zm412 215c-19,0 -34,-3 -47,-8 -13,-6 -26,-14 -40,-25l-16 30 -85 0 0 -449 101 0 0 152c13,-7 27,-13 41,-18 15,-5 29,-7 42,-7 27,0 49,6 65,17 16,11 28,29 35,53 8,25 11,57 11,97 0,54 -9,94 -26,120 -18,25 -45,38 -81,38zm-39 -82c14,0 25,-6 33,-18 8,-11 12,-32 12,-63 0,-23 -3,-40 -7,-52 -4,-12 -9,-20 -15,-23 -6,-4 -14,-5 -23,-5 -8,0 -17,1 -26,4 -9,3 -16,6 -22,10l0 135c15,8 31,12 48,12zm266 82c-25,0 -44,-7 -59,-22 -15,-14 -23,-34 -23,-58l0 -30c0,-26 9,-46 27,-61 18,-15 44,-22 79,-22l72 0 0 -16c0,-9 -2,-16 -5,-21 -3,-6 -9,-9 -18,-12 -9,-2 -23,-3 -42,-3l-93 0 0 -58c38,-14 82,-21 132,-21 42,0 74,8 96,24 21,16 32,44 32,84l0 213 -81 0 -16 -33c-9,9 -22,17 -41,25 -18,7 -38,11 -60,11zm52 -70c7,0 15,-1 25,-4 9,-3 16,-5 19,-7l0 -65 -38 4c-25,2 -38,13 -38,33l0 12c0,18 10,27 32,27zm203 -250l84 0 17 31c12,-9 26,-18 44,-25 17,-7 34,-11 51,-11 36,0 62,10 76,30 15,21 22,49 22,85l0 207 -102 0 0 -193c0,-25 -12,-38 -37,-38 -19,0 -37,7 -54,21l0 210 -101 0 0 -317zm455 320c-37,0 -65,-12 -84,-37 -19,-24 -28,-65 -28,-121 0,-40 3,-73 10,-97 8,-24 20,-42 37,-53 17,-11 41,-17 71,-17 24,0 49,4 76,13l0 -140 101 0 0 449 -86 0 -15 -30c-12,10 -25,18 -39,24 -14,6 -28,9 -43,9zm37 -81c16,0 30,-5 45,-15l0 -142c-15,-8 -29,-11 -42,-11 -13,0 -23,2 -30,7 -7,4 -12,12 -16,25 -3,12 -5,30 -5,54 0,23 2,40 5,52 3,11 7,19 14,23 7,5 16,7 29,7zm292 81c-28,0 -50,-8 -65,-26 -16,-17 -24,-40 -24,-69l0 -225 101 0 0 193c0,14 4,24 10,29 7,6 16,9 29,9 8,0 17,-2 27,-6 10,-4 19,-9 26,-15l0 -210 101 0 0 317 -84 0 -17 -32c-37,23 -72,35 -104,35zm263 -320l85 0 17 31c12,-9 26,-18 43,-25 18,-7 35,-11 51,-11 37,0 63,10 77,30 14,21 21,49 21,85l0 207 -101 0 0 -193c0,-25 -13,-38 -37,-38 -20,0 -37,7 -54,21l0 210 -102 0 0 -317zm657 55l-41 10c6,7 10,15 13,25 3,9 5,21 5,36 0,30 -10,54 -28,71 -19,17 -48,25 -88,25l-58 0c-8,0 -15,2 -21,5 -5,3 -8,7 -8,13 0,10 9,15 26,15l81 0c38,0 67,8 87,23 19,15 29,40 29,75l0 7c0,33 -10,58 -30,76 -20,18 -51,27 -91,27l-97 0c-31,0 -55,-7 -75,-20 -19,-13 -29,-32 -29,-55l0 -8c0,-15 4,-28 13,-40 8,-12 19,-21 33,-28 -21,-13 -32,-31 -32,-54 0,-16 5,-30 14,-41 9,-11 22,-19 38,-23 -32,-19 -48,-49 -48,-90 0,-35 10,-61 32,-78 22,-17 56,-26 102,-26l173 0 0 55zm-150 92c13,0 22,-3 28,-9 5,-6 8,-15 8,-27 0,-13 -3,-22 -9,-27 -5,-6 -14,-9 -26,-9l-33 0c-12,0 -21,3 -26,9 -6,5 -8,14 -8,27 0,12 2,21 8,27 5,6 14,9 25,9l33 0zm-43 184c-11,0 -20,2 -26,7 -7,5 -10,12 -10,21l0 5c0,9 3,16 9,21 6,5 15,7 27,7l56 0c12,0 21,-2 28,-6 7,-5 10,-12 10,-21l0 -7c0,-9 -3,-16 -9,-20 -7,-5 -16,-7 -28,-7l-57 0z"/>
  <path class="fil1" d="M4545 268c0,-4 2,-8 5,-11 3,-2 6,-4 11,-4 4,0 8,2 11,4 3,3 5,7 5,11 0,4 -2,8 -5,11 -3,2 -7,4 -11,4 -5,0 -9,-2 -12,-4 -2,-3 -4,-7 -4,-11z"/>
  <path id="1" class="fil1" d="M4630 282l-28 0 0 -104 28 0 0 104zm-29 -131c0,-5 1,-8 4,-11 3,-2 6,-4 11,-4 5,0 9,2 12,4 3,3 4,6 4,11 0,4 -1,7 -4,10 -3,3 -7,4 -12,4 -4,0 -8,-1 -11,-4 -3,-3 -4,-6 -4,-10z"/>
  <path id="2" class="fil1" d="M4649 229c0,-16 4,-29 11,-39 7,-10 17,-14 30,-14 10,0 18,3 25,11l0 -53 28 0 0 148 -25 0 -2 -11c-7,8 -16,13 -26,13 -13,0 -23,-5 -30,-15 -7,-9 -11,-23 -11,-40zm28 2c0,10 1,17 5,22 3,6 8,8 15,8 8,0 14,-3 18,-11l0 -41c-4,-7 -10,-11 -18,-11 -14,0 -20,11 -20,33z"/>
 </g>
</svg>
