<?xml version="1.0" encoding="UTF-8"?>
<!DOCTYPE svg PUBLIC "-//W3C//DTD SVG 1.1//EN" "http://www.w3.org/Graphics/SVG/1.1/DTD/svg11.dtd">
<!-- Creator: CorelDRAW X7 -->
<?xml-stylesheet href="under-construction.css" type="text/css"?>
<svg xmlns="http://www.w3.org/2000/svg" xml:space="preserve" width="3000px" height="2766px" version="1.1" style="shape-rendering:geometricPrecision; text-rendering:geometricPrecision; image-rendering:optimizeQuality; fill-rule:evenodd; clip-rule:evenodd"
viewBox="0 0 1057 975"
 xmlns:xlink="http://www.w3.org/1999/xlink">
 <style>
    .fil24 {fill:#FEFEFE}
    .fil3 {fill:#FACC2B}
    .fil26 {fill:#F9C844}
    .fil23 {fill:#F1943B}
    .fil9 {fill:#F6C62D}
    .fil22 {fill:#F3B038}
    .fil16 {fill:#EF9135}
    .fil25 {fill:#E95B37}
    .fil27 {fill:#F8EC2C}
    .fil15 {fill:#EEEEEE}
    .fil19 {fill:#DE5138}
    .fil28 {fill:#EDC830}
    .fil8 {fill:#E1B737}
    .fil17 {fill:#DA9861}
    .fil29 {fill:#DBA339}
    .fil7 {fill:#CFA73B}
    .fil21 {fill:#C7E8E8}
    .fil0 {fill:#C3CCE8}
    .fil12 {fill:#B5C9D5}
    .fil1 {fill:#A8B5D7}
    .fil2 {fill:#A4B0D3}
    .fil13 {fill:#92A1A9}
    .fil18 {fill:#382F2C}
    .fil5 {fill:#777D8F}
    .fil20 {fill:#4F4F50}
    .fil4 {fill:#404141}
    .fil6 {fill:#2A2A2A}
    .fil10 {fill:#434A50}
    .fil14 {fill:#2B2F30}
    .fil11 {fill:#2F353E}
 </style>
 <g id="Layer_x0020_1">
  <metadata id="CorelCorpID_0Corel-Layer"/>
  <path class="fil0" d="M1013 477c0,-263 -213,-477 -477,-477 -263,0 -477,214 -477,477 0,264 214,477 477,477 264,0 477,-213 477,-477z"/>
  <path class="fil1" d="M1013 477c0,0 0,0 0,0 0,0 0,0 0,0zm-954 0c0,0 0,0 0,0 0,0 0,0 0,0zm954 0c0,0 0,-1 0,-1 0,0 0,1 0,1zm-954 -1c0,0 0,0 0,0 0,0 0,0 0,0zm954 0c0,0 0,0 0,0 0,0 0,0 0,0zm-954 0c0,0 0,0 0,0 0,0 0,0 0,0zm954 0c0,0 0,0 0,0 0,0 0,0 0,0zm-954 0c0,0 0,-1 0,-1 0,0 0,0 0,1zm954 0c0,-1 0,-1 0,-1 0,0 0,0 0,1zm-954 -1c0,0 0,0 0,0 0,0 0,0 0,0zm954 0c0,0 0,0 0,0 0,0 0,0 0,0zm0 0c0,0 0,0 0,-1 0,1 0,1 0,1zm-954 0c0,0 0,0 0,0l0 0zm0 -1l0 0zm954 0c0,0 0,0 0,0 0,0 0,0 0,0zm0 0c0,0 0,0 0,0 0,0 0,0 0,0zm0 0c0,-1 0,-1 0,-1 0,0 0,0 0,1zm0 -1c0,0 0,0 0,0 0,0 0,0 0,0zm0 0c0,0 0,0 0,0 0,0 0,0 0,0zm0 -1c0,0 0,0 0,0 0,0 0,0 0,0zm0 0c0,0 0,0 0,0 0,0 0,0 0,0zm0 0l0 0c0,0 0,0 0,0z"/>
  <path class="fil2" d="M536 954c-263,0 -477,-213 -477,-477 0,0 0,0 0,0 0,0 0,0 0,0 0,-1 0,-1 0,-1 0,0 0,0 0,0 0,0 0,0 0,0 0,0 0,0 0,0 0,0 0,0 0,0 0,-1 0,-1 0,-1 0,0 0,0 0,0 0,0 0,0 0,0 0,0 0,0 0,0l0 0c0,0 0,-1 0,-1l0 0c0,-32 4,-64 10,-95l0 48 27 0 0 -125 18 0 0 -32 82 0 0 32 18 0 0 67 26 0 0 -41 95 0 0 72 31 0 0 -78 55 -27 0 105 14 0 0 53 55 0 0 -131 82 0 0 59 64 28 0 -57 65 0 0 40 34 0 0 58 25 0 0 -63 44 -22 0 85 10 0 0 42 45 0 0 -105 65 0 0 47 51 22 0 -45 34 0c3,20 4,40 4,61l0 0c0,0 0,0 0,0 0,0 0,0 0,0 0,0 0,0 0,0 0,0 0,0 0,0 0,0 0,0 0,1 0,0 0,0 0,0 0,0 0,0 0,0 0,0 0,0 0,0 0,0 0,0 0,0 0,0 0,0 0,1 0,0 0,0 0,0 0,0 0,0 0,0 0,0 0,0 0,0 0,0 0,0 0,0 0,0 0,0 0,0 0,1 0,1 0,1 0,0 0,0 0,0 0,0 0,0 0,0 0,0 0,0 0,0 0,0 0,0 0,1 0,0 0,0 0,0 0,0 0,0 0,0 0,0 0,0 0,0 0,0 0,0 0,0 0,0 0,0 0,0 0,0 0,1 0,1 0,0 0,0 0,0 0,0 0,0 0,0l0 0c0,264 -213,477 -477,477z"/>
  <path class="fil3" d="M718 672l61 7c-12,-11 -32,-24 -46,-33 -8,-7 -39,-27 -44,-34l-62 -6 91 66z"/>
  <path class="fil3" d="M219 616l61 7c-15,-14 -83,-57 -89,-67l-62 -6 90 66z"/>
  <polygon class="fil3" points="319,627 379,634 290,568 228,561 "/>
  <path class="fil3" d="M418 638l62 7 -90 -66 -62 -7c13,11 31,23 46,33 12,10 35,24 44,33z"/>
  <path class="fil3" d="M618 661l61 7c-8,-9 -33,-25 -45,-33 -9,-7 -40,-27 -44,-34l-63 -6c13,11 30,22 45,32 10,8 39,26 46,34z"/>
  <path class="fil3" d="M817 683l62 7c-16,-14 -84,-57 -90,-66l-62 -7 90 66z"/>
  <path class="fil3" d="M916 695l43 4c1,-3 3,-6 5,-9 -11,-8 -24,-17 -31,-22 -9,-6 -40,-27 -44,-33l-63 -7c16,13 84,57 90,67z"/>
  <path class="fil3" d="M519 650l61 6c-12,-10 -31,-23 -45,-32 -9,-7 -41,-28 -45,-34l-63 -7c16,12 31,22 46,33 14,10 34,23 46,34z"/>
  <path class="fil3" d="M68 567c4,3 7,5 9,7 10,6 37,23 42,31l59 5c-7,-8 -80,-56 -87,-65l-27 -3c1,8 2,17 4,25z"/>
  <path class="fil3" d="M983 645l-57 -6c9,9 33,24 46,34 4,-9 7,-18 11,-28z"/>
  <path class="fil4" d="M879 690l37 5c-6,-10 -74,-54 -90,-67l-37 -4c6,9 74,52 90,66z"/>
  <path class="fil4" d="M280 623l39 4 -91 -66 -37 -5c6,10 74,53 89,67z"/>
  <path class="fil4" d="M178 610c9,4 30,5 41,6l-90 -66 -38 -5c7,9 80,57 87,65z"/>
  <path class="fil4" d="M480 645l39 5c-12,-11 -32,-24 -46,-34 -15,-11 -30,-21 -46,-33l-37 -4 90 66z"/>
  <path class="fil4" d="M972 673c-13,-10 -37,-25 -46,-34l-37 -4c4,6 35,27 44,33 7,5 20,14 31,22 2,-6 5,-12 8,-17z"/>
  <path class="fil4" d="M580 656l38 5c-7,-8 -36,-26 -46,-34 -15,-10 -32,-21 -45,-32l-37 -5c4,6 36,27 45,34 14,9 33,22 45,32z"/>
  <path class="fil4" d="M679 668l39 4 -91 -66 -37 -5c4,7 35,27 44,34 12,8 37,24 45,33z"/>
  <path class="fil4" d="M379 634l39 4c-9,-9 -32,-23 -44,-33 -15,-10 -33,-22 -46,-33l-38 -4 89 66z"/>
  <path class="fil4" d="M779 679l38 4 -90 -66 -38 -5c5,7 36,27 44,34 14,9 34,22 46,33z"/>
  <path class="fil4" d="M74 595l7 5 38 5c-5,-8 -32,-25 -42,-31 -2,-2 -5,-4 -9,-7 1,9 4,19 6,28z"/>
  <path class="fil3" d="M81 600l-7 -5c0,2 1,3 1,5l6 0z"/>
  <path class="fil3" d="M718 651l61 -7c-12,-8 -32,-16 -46,-23 -8,-4 -39,-17 -44,-22l-62 7 91 45z"/>
  <path class="fil3" d="M219 712l61 -8c-15,-10 -83,-37 -89,-45l-62 8 90 45z"/>
  <polygon class="fil3" points="319,700 379,692 290,647 228,654 "/>
  <path class="fil3" d="M418 688l62 -8 -90 -45 -62 8c13,7 31,15 46,22 12,6 35,15 44,23z"/>
  <path class="fil3" d="M618 664l61 -8c-8,-7 -33,-17 -45,-22 -9,-5 -40,-17 -44,-23l-63 7c13,8 30,16 45,23 10,5 39,17 46,23z"/>
  <path class="fil3" d="M817 639l62 -7c-16,-10 -84,-37 -90,-46l-62 8 90 45z"/>
  <path class="fil3" d="M916 628l62 -8c-8,-7 -34,-17 -45,-23 -9,-4 -40,-18 -44,-23l-63 8c16,10 84,38 90,46z"/>
  <path class="fil3" d="M519 675l61 -7c-12,-8 -31,-16 -45,-22 -9,-4 -41,-18 -45,-23l-63 7c16,9 31,15 46,23 14,7 34,14 46,22z"/>
  <path class="fil3" d="M127 723l51 -8c-5,-5 -51,-25 -74,-36 7,15 15,30 23,44z"/>
  <path class="fil3" d="M1004 572c-8,-5 -15,-8 -16,-10l-62 8c9,7 34,17 46,23 6,3 15,7 24,11 3,-10 6,-21 8,-32z"/>
  <path class="fil4" d="M879 632l37 -4c-6,-8 -74,-36 -90,-46l-37 4c6,9 74,36 90,46z"/>
  <path class="fil4" d="M280 704l39 -4 -91 -46 -37 5c6,8 74,35 89,45z"/>
  <path class="fil4" d="M178 715c9,2 30,-2 41,-3l-90 -45 -29 3c1,3 2,6 4,9 23,11 69,31 74,36z"/>
  <path class="fil4" d="M480 680l39 -5c-12,-8 -32,-15 -46,-22 -15,-8 -30,-14 -46,-23l-37 5 90 45z"/>
  <path class="fil4" d="M978 620l14 -2c2,-4 3,-9 4,-14 -9,-4 -18,-8 -24,-11 -12,-6 -37,-16 -46,-23l-37 4c4,5 35,19 44,23 11,6 37,16 45,23z"/>
  <path class="fil4" d="M580 668l38 -4c-7,-6 -36,-18 -46,-23 -15,-7 -32,-15 -45,-23l-37 5c4,5 36,19 45,23 14,6 33,14 45,22z"/>
  <path class="fil4" d="M679 656l39 -5 -91 -45 -37 5c4,6 35,18 44,23 12,5 37,15 45,22z"/>
  <path class="fil4" d="M379 692l39 -4c-9,-8 -32,-17 -44,-23 -15,-7 -33,-15 -46,-22l-38 4 89 45z"/>
  <path class="fil4" d="M779 644l38 -5 -90 -45 -38 5c5,5 36,18 44,22 14,7 34,15 46,23z"/>
  <path class="fil4" d="M1006 560c-6,1 -12,2 -18,2 1,2 8,5 16,10 1,-4 1,-8 2,-12z"/>
  <path class="fil5" d="M1030 861c0,-64 -218,-115 -488,-115 -270,0 -489,51 -489,115 0,63 219,114 489,114 270,0 488,-51 488,-114z"/>
  <path class="fil6" d="M513 506c0,6 -2,13 -2,19 1,13 1,25 2,37 1,12 0,41 -5,52 -3,5 -3,6 -4,12 0,1 0,1 0,2 0,0 0,1 0,1l-1 1c-2,20 5,71 6,98 1,19 3,54 1,73 -2,16 -3,11 -4,14 0,3 1,3 2,5l-21 21c-6,5 -19,10 -15,25 1,1 15,8 28,-5 12,-12 15,-19 23,-28 3,-4 2,-5 1,-10 1,-2 4,-2 2,-7 -4,-10 -1,-12 1,-27 1,-7 1,-13 2,-20 0,-6 2,-12 3,-18 2,-13 3,-25 5,-38 1,-15 4,-24 1,-40 -1,-9 -6,-27 -6,-35 1,-13 3,-26 4,-38 3,-27 2,-29 10,-54 3,-7 2,-10 11,-12 2,25 16,70 21,104 1,13 -4,24 -5,36 -2,28 4,50 7,77 2,21 5,33 9,53 1,7 -1,11 -3,17 11,15 -3,57 30,52 6,-1 9,-5 9,-12 0,-9 -18,-26 -22,-40 4,-7 2,3 -1,-16 -1,-5 -1,-16 -1,-22 0,-15 0,-29 0,-43 1,-23 5,-40 4,-64 0,-6 -1,-16 -1,-21 3,-19 -11,-116 -8,-124 3,-5 3,-15 5,-25l-88 0z"/>
  <path class="fil7" d="M530 711l47 0c4,0 6,0 9,-1 2,-2 4,-4 4,-6 1,-4 1,-24 1,-29 0,-5 1,-26 -1,-29l-75 0c2,4 -1,53 1,58 3,8 9,7 14,7z"/>
  <path class="fil8" d="M600 616c4,-1 6,-2 9,1 2,2 3,6 2,8 -3,5 -14,5 -13,-5 -1,1 0,1 -1,1 -1,1 -18,1 -20,1 -22,0 -49,0 -69,0 0,-1 -1,-1 -1,-1l0 0 0 0c-1,-1 1,-1 -1,-1 1,12 -13,10 -13,2 0,-4 2,-5 3,-7 -1,1 -1,2 -2,3l-2 3c-4,2 -13,0 -16,1l0 -12c0,3 0,14 0,18 0,7 1,10 5,14 5,4 8,4 15,4 7,0 13,0 19,0l75 0c2,3 1,24 1,29 0,5 0,25 -1,29 2,-2 1,-12 1,-14 0,-13 -1,-33 0,-44 15,-1 28,3 35,-5 1,-1 2,-2 3,-3 0,-3 1,-4 2,-7 0,-2 0,-5 0,-7 0,-6 0,-11 -1,-15l0 13 -18 0 -1 -4c-2,-4 -8,-3 -10,-3l-1 1z"/>
  <path class="fil9" d="M476 610l0 12c3,-1 12,1 16,-1l2 -3c1,-1 1,-2 2,-3 3,1 5,0 7,1 2,1 3,2 3,4 2,0 0,0 1,1l0 0 0 0c0,0 1,0 1,1 20,0 47,0 69,0 2,0 19,0 20,-1 1,0 0,0 1,-1 0,0 2,-3 2,-4l1 -1c2,0 8,-1 10,3l1 4 18 0 0 -13c-1,-4 -3,-7 -6,-9 -2,-1 -4,-2 -5,-2 -2,0 -5,0 -7,-1l-15 0c-11,5 -83,3 -88,0l-15 0c-2,2 -9,0 -14,5 -2,2 -3,4 -4,8z"/>
  <path class="fil10" d="M494 597l15 0c-1,-6 0,-15 0,-22 0,-15 6,-24 22,-24l44 0c16,0 22,9 22,23 0,8 1,16 0,23l15 0c-2,-17 6,-33 -9,-50 -13,-13 -28,-10 -50,-10 -20,0 -36,-3 -49,10 -15,16 -8,33 -10,50z"/>
  <polygon class="fil11" points="530,762 577,762 577,711 530,711 "/>
  <path class="fil12" d="M544 891c3,1 6,6 9,8 2,-1 7,-6 8,-7 2,-3 2,-3 2,-7l0 -38c0,-20 -1,-41 0,-61l-19 0c0,7 0,18 0,26 0,9 0,18 0,26 0,8 -1,49 0,53z"/>
  <path class="fil9" d="M544 772l19 0c3,0 14,0 17,-1 1,-1 0,-5 0,-6 0,-4 0,-3 -3,-3l-47 0 -4 0 0 9 18 1z"/>
  <path class="fil10" d="M550 660l0 36c0,3 0,6 3,6 4,0 4,-4 4,-7l0 -36c0,-5 -7,-7 -7,1z"/>
  <path class="fil10" d="M531 655c-3,2 -2,8 -2,12l0 26c0,4 0,11 6,8 2,-1 1,-8 1,-11 0,-5 1,-32 0,-34 -1,-1 -3,-2 -5,-1z"/>
  <path class="fil10" d="M572 655c-3,2 -2,8 -2,12 0,4 0,31 1,33 0,2 3,2 5,1 2,-1 1,-8 1,-11l0 -27c0,-2 0,-5 0,-7 -1,-1 -3,-2 -5,-1z"/>
  <polygon class="fil13" points="544,786 563,786 563,772 544,772 "/>
  <path class="fil14" d="M600 616c0,1 -2,4 -2,4 -1,10 10,10 13,5 1,-2 0,-6 -2,-8 -3,-3 -5,-2 -9,-1z"/>
  <path class="fil14" d="M506 620c0,-2 -1,-3 -3,-4 -2,-1 -4,0 -7,-1 -1,2 -3,3 -3,7 0,8 14,10 13,-2z"/>
  <polygon class="fil15" points="510,448 596,448 596,319 510,319 "/>
  <polygon class="fil15" points="487,504 614,504 614,414 487,414 "/>
  <polygon class="fil16" points="614,433 487,433 487,468 614,468 "/>
  <polygon class="fil16" points="614,488 487,488 487,520 614,521 "/>
  <path class="fil16" d="M580 414l-1 -95 -9 0 -1 3c1,2 1,0 1,3 0,0 0,2 0,3 -2,33 -15,33 -19,59 -2,-6 -1,-5 -5,-16 -7,-14 -13,-20 -14,-41 0,-5 -1,-7 0,-9l0 -2 -10 0 0 95 58 0z"/>
  <path class="fil16" d="M487 414l28 0 0 -95 -10 0c0,26 -3,63 -18,74l0 21z"/>
  <path class="fil16" d="M596 319l-9 0 0 95 27 0 0 -21c-7,-5 -11,-19 -14,-30 -3,-13 -4,-30 -4,-44z"/>
  <path class="fil17" d="M499 228l-6 1c-1,4 -2,7 -1,12 0,7 7,13 13,15 14,4 0,1 19,23 9,11 7,0 10,18l1 0c2,12 0,22 -8,25 7,2 17,8 25,8 4,0 10,-3 13,-4 4,-2 6,-5 9,-8 -7,-2 -11,-4 -12,-12 0,-3 -1,-8 -1,-13 0,-1 0,-2 0,-4 0,-1 0,-2 0,-3 2,-5 17,-13 20,-32 7,-4 11,-2 15,-10 4,-8 2,-17 -4,-20 -10,-3 -4,6 -10,18 4,-15 -4,-38 -11,-42 -20,-12 -67,15 -60,47 -2,-4 -2,-5 -4,-9 -2,-3 -2,-5 -3,-9l-5 -1z"/>
  <path class="fil18" d="M499 228l5 1c1,4 1,6 3,9 2,4 2,5 4,9 5,-7 -4,-12 3,-18 10,-11 0,7 0,8 4,-5 13,-15 45,-33 -1,6 -4,11 -7,15 11,-1 18,-8 19,-19 32,30 -43,22 10,27 -1,8 0,8 1,15 6,-12 0,-21 10,-18 4,-8 6,-12 2,-21 4,1 2,2 7,4 -2,-15 -18,-26 -34,-26 0,-24 -15,-9 -26,-17 2,4 5,3 9,6 -15,-2 -32,3 -40,11 -7,7 -12,13 -21,20 -3,2 -5,3 -8,4l13 0c-3,4 -12,9 -4,17 1,-2 0,-3 1,-6l4 6c1,2 3,4 4,6z"/>
  <path class="fil16" d="M506 274c-2,-3 -2,-17 -2,-23 0,-5 -2,-20 0,-24l-3 1c-4,-5 -4,-38 12,-50 3,3 4,2 7,0 7,-4 16,-6 25,-6 6,0 13,1 18,3 11,4 11,7 15,3 12,10 14,31 12,50l-5 -1c1,4 -1,33 -1,41 0,3 0,4 -1,6 5,0 13,2 17,-1 5,-4 4,-8 4,-16 1,-6 1,-12 1,-18 0,-7 -3,-10 -8,-11 0,-16 2,-34 -10,-49 -18,-24 -65,-24 -84,0 -12,15 -11,31 -10,48 0,1 0,0 0,1 -1,0 -1,0 -1,0 0,0 0,0 0,0 0,0 -1,0 -1,0 -11,4 -8,10 -7,28 0,7 -1,13 3,16 5,4 12,1 19,2z"/>
  <path class="fil19" d="M504 227c-2,4 0,19 0,24 0,6 0,20 2,23 1,2 6,1 7,0 1,-2 -1,-46 -2,-47 -2,-1 -6,-1 -7,0z"/>
  <path class="fil19" d="M583 274c1,-2 1,-3 1,-6 0,-8 2,-37 1,-41 -2,-1 -7,-1 -8,1 -1,2 -1,20 -1,22 0,5 -2,20 -1,24 1,1 7,2 8,0z"/>
  <path class="fil20" d="M509 233c-5,0 -5,1 -5,6 0,5 -1,11 3,11 1,0 2,0 3,0 3,8 10,8 20,8 16,0 14,-10 17,-10 4,-1 1,10 18,10 7,0 16,1 20,-8 7,0 6,0 6,-11 0,-5 0,-6 -5,-6 -2,-6 -8,-7 -15,-8 -17,-1 -30,-1 -46,0 -8,1 -14,2 -16,8z"/>
  <path class="fil21" d="M539 228c-11,1 -30,-1 -27,13 2,10 4,13 13,13 5,0 10,1 13,-1 4,-2 3,-6 6,-8 3,-3 7,-1 9,2 2,4 2,6 7,7 1,0 10,0 13,0 4,0 7,-2 8,-5 1,-2 3,-9 3,-11 -2,-9 -10,-8 -19,-9 -8,-1 -17,-1 -26,-1z"/>
  <path class="fil17" d="M593 363c4,3 42,79 46,86 -2,3 -4,5 -7,8 -1,2 -4,5 -6,8 -2,5 -2,6 -5,9 -2,4 -3,8 -6,7 0,6 -11,20 -15,25 -3,3 -8,10 -10,11 -3,2 -15,4 -19,3l-9 2c-7,1 -6,2 -6,8 0,5 -1,3 -5,8 2,3 3,2 3,6 1,3 -1,2 2,6 3,4 3,0 3,6 0,3 -1,2 1,6l5 1c4,-3 0,0 2,-2 2,-1 0,0 3,-2 1,-2 3,-3 5,-4 5,-2 12,-9 14,-12 2,-3 3,-5 6,-8 5,-6 21,-22 27,-27 3,-3 3,-5 6,-8 3,-5 7,-8 12,-12 2,-2 3,-4 6,-6 2,-2 4,-3 6,-5 1,-3 1,-4 4,-6 1,-1 1,-2 2,-3 3,-3 -2,-1 4,-2 2,-5 7,-11 8,-18 2,-5 -4,-14 -6,-19 -21,-56 -114,-177 -45,-21l-26 -45z"/>
  <path class="fil17" d="M463 453c1,3 4,6 6,8 2,2 4,6 5,9 2,4 2,5 5,9 2,3 3,8 5,6 -1,7 10,20 14,25 2,3 6,10 8,11 3,2 15,4 19,4l9 1c7,2 5,2 5,8 0,6 1,3 4,8 -1,4 -2,3 -4,6 -1,4 1,2 -1,6 -4,4 -3,1 -4,6 0,3 1,3 -1,6l-6 1c-4,-2 0,0 -2,-2 -1,-1 0,0 -2,-2 -1,-1 -3,-3 -5,-4 -5,-2 -11,-9 -13,-12 -2,-3 -3,-5 -5,-8 -4,-6 -20,-21 -25,-27 -3,-3 -3,-5 -5,-8 -3,-4 -7,-7 -11,-12 -2,-2 -3,-3 -6,-6 -2,-2 -4,-3 -5,-5 -1,-3 -1,-3 -3,-6 -1,-1 -2,-2 -3,-3 -3,-2 2,0 -3,-2 -2,-5 -6,-10 -7,-18 -1,-5 6,-14 8,-19 48,-129 113,-154 23,20z"/>
  <path class="fil22" d="M493 217l6 -1c16,-1 30,-4 46,-4 15,0 32,4 45,4l6 1 5 0c-1,-5 -4,-6 -5,-11 -3,-17 -2,-24 -16,-39l-3 -5c-6,-12 -9,-5 -19,-8 -9,-3 -4,-4 -11,-5 -6,-1 -7,2 -12,4 -11,3 -14,-2 -21,9 -6,8 -13,10 -19,30 -1,4 -2,9 -2,13 -2,7 -4,7 -5,12l5 0z"/>
  <path class="fil23" d="M544 149c-4,0 -5,3 -9,4 -7,2 -11,1 -15,2l13 41 11 -47z"/>
  <path class="fil23" d="M546 149c4,0 5,3 9,4 7,2 11,1 15,2l-13 41 -11 -47z"/>
  <polygon class="fil24" points="739,822 792,601 839,606 890,824 "/>
  <path class="fil25" d="M739 822l-24 4 0 20c32,5 145,3 179,2 9,0 12,1 15,0l0 -23c-6,-1 -13,-1 -19,-1 -1,-10 -3,-17 -4,-25l-10 -25 -124 -2 -13 50z"/>
  <polygon class="fil25" points="764,717 866,717 852,661 778,661 "/>
  <path class="fil25" d="M791 606l48 0c-2,-22 -9,-69 -23,-81 -16,10 -23,60 -25,81z"/>
  <polygon class="fil24" points="175,834 220,645 261,649 304,835 "/>
  <path class="fil25" d="M175 834l-20 3 0 17c27,5 124,3 152,2 8,0 11,0 13,0l0 -20c-5,-1 -11,-1 -16,-1 -1,-8 -2,-14 -4,-21l-8 -21 -105 -2 -12 43z"/>
  <polygon class="fil25" points="197,744 283,744 272,696 208,696 "/>
  <path class="fil25" d="M219 649l42 0c-2,-18 -8,-59 -20,-69 -14,9 -19,52 -22,69z"/>
  <path class="fil26" d="M277 932l180 1c31,-4 10,-27 -8,-57 -10,-17 -19,-34 -29,-51l-43 -75c-18,-31 -29,-2 -53,40l-57 101c-12,21 -32,41 10,41z"/>
  <path class="fil11" d="M379 869l0 29 -31 0 0 -29 31 0zm3 -78l-9 71 -19 0 -9 -71 37 0z"/>
  <path class="fil27" d="M320 706c5,12 8,25 12,37 3,8 9,30 12,36l42 -14c-1,-10 -19,-58 -23,-73l-3 -6c-1,-2 -1,-3 -5,-2l-37 12 2 10z"/>
  <path class="fil28" d="M306 790l38 -11c-3,-6 -9,-28 -12,-36 -4,-12 -7,-25 -12,-37 -5,3 -11,11 -14,16 -4,7 -5,11 -7,19 -4,18 1,29 7,49z"/>
  <path class="fil28" d="M386 765l37 -12c-7,-20 -8,-31 -22,-44 -6,-6 -10,-9 -17,-12 -6,-2 -15,-5 -21,-5 4,15 22,63 23,73z"/>
  <path class="fil29" d="M423 753l-37 12 -42 14 -38 11c-3,2 -6,2 -7,5 -1,4 2,5 6,5l56 -11c10,-1 68,-27 72,-32 -1,-9 -3,-4 -10,-4z"/>
  <path class="fil24" d="M259 214l-10 0c1,-3 1,-6 2,-9 1,-22 -14,-41 -35,-44 -8,-1 -15,0 -21,3 -5,-11 -16,-18 -29,-18 -11,0 -20,5 -26,13 -10,-6 -21,-9 -32,-9 -23,0 -42,12 -52,30 -3,-1 -6,-2 -10,-2 -18,0 -32,14 -32,32 0,1 0,3 1,4 -9,1 -15,8 -15,16 0,9 7,16 16,16l21 0 202 0 20 0c9,0 16,-7 16,-16 0,-9 -7,-16 -16,-16z"/>
  <path class="fil24" d="M1043 257l-9 0c0,-3 1,-6 1,-9 2,-19 -12,-36 -31,-38 -6,-1 -13,0 -18,2 -5,-9 -15,-15 -26,-15 -10,0 -18,4 -24,11 -8,-5 -18,-9 -28,-9 -20,0 -37,11 -46,28 -3,-1 -6,-2 -9,-2 -16,0 -29,13 -29,28 0,1 0,3 1,4 -8,1 -13,7 -13,14 0,8 6,15 14,15l18 0 181 0 18 0c8,0 14,-7 14,-15 0,-8 -6,-14 -14,-14z"/>
  <path class="fil24" d="M853 65l-10 0c1,-2 2,-5 2,-8 1,-19 -13,-36 -32,-39 -6,0 -12,0 -18,3 -5,-10 -14,-16 -26,-16 -9,0 -18,5 -23,12 -8,-6 -18,-9 -29,-9 -20,0 -37,11 -45,27 -3,-1 -7,-1 -10,-1 -16,0 -28,12 -28,28 0,1 0,2 0,4 -7,0 -13,6 -13,14 0,8 7,14 14,14l19 0 181 0 18 0c7,0 14,-6 14,-14 0,-8 -7,-15 -14,-15z"/>
  <polygon class="fil24" points="315,125 325,143 343,152 325,162 315,180 305,162 287,152 305,143 "/>
  <polygon class="fil24" points="717,163 724,176 737,183 724,190 717,202 711,190 698,183 711,176 "/>
  <polygon class="fil24" points="106,393 113,406 126,413 113,420 106,433 99,420 87,413 99,406 "/>
  <polygon class="fil24" points="299,465 306,478 319,485 306,492 299,505 292,492 279,485 292,478 "/>
  <polygon class="fil24" points="981,368 988,380 1001,387 988,394 981,407 974,394 961,387 974,380 "/>
  <polygon class="fil24" points="735,337 742,350 755,357 742,364 735,376 728,364 715,357 728,350 "/>
  <polygon class="fil24" points="865,456 872,469 885,476 872,483 865,495 858,483 845,476 858,469 "/>
  <polygon class="fil24" points="504,58 511,71 523,78 511,84 504,97 497,84 484,78 497,71 "/>
  <polygon class="fil0" points="268,370 253,370 253,355 268,355 "/>
  <polygon class="fil0" points="303,409 293,409 293,399 303,399 "/>
  <polygon class="fil0" points="310,373 297,373 297,360 310,360 "/>
  <polygon class="fil0" points="388,363 377,363 377,352 388,352 "/>
  <polygon class="fil0" points="137,342 126,342 126,331 137,331 "/>
  <polygon class="fil0" points="177,346 163,346 163,332 177,332 "/>
  <polygon class="fil0" points="174,443 162,443 162,431 174,431 "/>
  <polygon class="fil0" points="706,442 694,442 694,429 706,429 "/>
  <polygon class="fil0" points="690,548 672,548 672,530 690,530 "/>
  <polygon class="fil0" points="762,500 747,500 747,485 762,485 "/>
  <polygon class="fil0" points="900,420 889,420 889,409 900,409 "/>
  <polygon class="fil0" points="976,515 964,515 964,503 976,503 "/>
  <polygon class="fil0" points="401,478 391,478 391,468 401,468 "/>
  <polygon class="fil0" points="195,523 174,523 174,503 195,503 "/>
 </g>
</svg>
